<?xml version="1.0" encoding="UTF-8"?>
<svg xmlns="http://www.w3.org/2000/svg" viewBox="0 0 374.35 90.71">
  <defs>
    <style>
      .cls-1 {
        fill: #fff;
      }

      .cls-2 {
        fill: none;
      }
    </style>
  </defs>
  <g id="Schutzraum">
    <rect class="cls-2" width="374.35" height="90.71"/>
    <rect class="cls-2" width="374.35" height="90.71"/>
    <rect class="cls-2" width="374.35" height="90.71"/>
    <rect class="cls-2" width="374.35" height="90.71"/>
    <rect class="cls-2" width="374.35" height="90.71"/>
  </g>
  <g id="Logo">
    <g>
      <path class="cls-1" d="M299.53,67.85h4.34v-9.11h2.32c1.75,0,2.5,1.03,2.57,2.72l.12,4.13c.03.84.12,1.66.54,2.26h4.71v-.18c-.81-.42-.93-1.6-.96-3.86-.06-4.56-.51-6.19-3.47-6.58v-.06c2.44-.51,3.59-2.44,3.59-5.31,0-3.68-2.17-5.55-5.73-5.55h-8.03v21.55ZM303.88,49.51h2.05c1.96,0,3.02,1,3.02,2.99,0,2.32-1.18,3.23-3.26,3.23h-1.81v-6.22Z"/>
      <path class="cls-1" d="M235.47,46.31v15.03c0,5.76,3.35,6.94,6.88,6.94s6.88-1.45,6.88-6.94v-15.03h-4.34v15.03c0,2.14-.51,3.74-2.53,3.74s-2.53-1.6-2.53-3.74v-15.03h-4.34Z"/>
    </g>
    <polygon class="cls-1" points="250.29 46.31 250.29 67.85 254.28 67.85 254.28 52.77 254.34 52.77 259.65 67.85 264.6 67.85 264.6 46.31 260.61 46.31 260.61 61.06 260.55 61.06 255.3 46.31 250.29 46.31"/>
    <rect class="cls-1" x="265.71" y="46.31" width="4.35" height="21.55"/>
    <polygon class="cls-1" points="270.36 46.31 275.3 67.85 280.89 67.85 285.83 46.31 281.34 46.31 278.14 62.24 278.05 62.24 275 46.31 270.36 46.31"/>
    <polygon class="cls-1" points="286.22 46.31 286.22 67.85 298.56 67.85 298.56 64.29 290.57 64.29 290.57 58.5 297.81 58.5 297.81 54.94 290.57 54.94 290.57 49.87 298.26 49.87 298.26 46.31 286.22 46.31"/>
    <path class="cls-1" d="M313.65,61.12v.88c0,3.98,1.93,6.28,6.85,6.28s7.48-2.05,7.48-6.61c0-2.62-.84-4.28-4.1-5.7l-3.35-1.45c-1.84-.79-2.23-1.6-2.23-2.93s.51-2.5,2.47-2.5c1.66,0,2.35,1.18,2.35,3.2h4.16v-.6c0-4.13-2.81-5.79-6.67-5.79-4.1,0-6.67,2.14-6.67,6.34,0,3.59,1.78,5.19,5.64,6.52,2.87,1,3.86,1.72,3.86,3.68,0,1.81-1.27,2.66-2.59,2.66-2.29,0-2.87-1.3-2.87-3.32v-.63h-4.34Z"/>
    <rect class="cls-1" x="328.55" y="46.31" width="4.34" height="21.55"/>
    <polygon class="cls-1" points="355.47 46.31 352.45 54.63 352.39 54.63 349.55 46.31 333.47 46.31 333.47 49.87 338.17 49.87 338.17 67.85 342.52 67.85 342.52 49.87 346.19 49.87 350.25 59.37 350.25 67.85 354.59 67.85 354.59 59.37 360.18 46.31 355.47 46.31"/>
    <g>
      <path class="cls-1" d="M197.3,44.35h-7.2v-21.64h11.81c3.2,0,5.96,2.07,6.86,4.82.83,2.55.12,5.31-1.76,7.28.25.68.49,1.21.73,1.82.52,1.2,1,2.41,1.52,3.6l1.71,4.12h-7.3s-.06-.17-.12-.25c-.29-.64-.55-1.32-.84-1.96l-1.76-4.17c-.7-1.68-1.39-3.28-2.09-4.96.87-.02,1.52.14,2.36-.25.59-.29,1.48-1.01,1.51-2.39-.02-.69-.21-1.2-.67-1.74-.45-.5-1.11-.87-1.97-.89,0,0-2.8,0-2.8,0v16.6Z"/>
      <path class="cls-1" d="M272.5,22.71v21.64h-7.2v-8.82h-5.04v8.82c-1.31,0-2.71-.01-4.02,0h-3.18v-16.63h-5.04v16.63h-7.2v-16.63h-5.08v16.63h-7.42c-1.29-3.12-2.66-6.27-3.92-9.38-.14-.65-.29-1.31-.48-1.94v11.32h-7.43c-1.47-3.43-2.89-6.78-4.36-10.26-.51-1.2-.93-2.18-1.45-3.44l-.07-.16-1.14-2.69-1.64-3.83c-.14-.44-.38-.83-.52-1.26h7.41c1.52,3.7,3.06,7.36,4.66,11l.04.09c-.06-.42-.19-.96-.26-1.36v-6.46c.01-1.03,0-2.21,0-3.27h7.43c.09.24.15.36.22.55.87,2.05,1.7,4.08,2.57,6.11l1.94,4.43c-.04-.47-.15-.91-.2-1.36v-9.73h29.13v7.81h5.04v-7.81h7.2Z"/>
    </g>
    <path class="cls-1" d="M293.39,36.19l2.09-9.73h.06l2.09,9.73h-4.24ZM278.96,36.19l2.09-9.73h.06l2.09,9.73h-4.24ZM298.21,22.7h-5.4l-4.52,17.06-4.52-17.06h-5.4l-5.73,21.64h4.55l1-4.58h5.76l1,4.58h6.67l1-4.58h5.76l1,4.58h4.55l-5.73-21.64Z"/>
    <path class="cls-1" d="M316.94,30.09c0-3.14-.45-7.69-6.67-7.69s-7.33,4.65-7.33,11.19.82,11.19,7.33,11.19c5.7,0,6.85-4.01,6.85-8.66h-4.34c0,4.65-1.15,5.46-2.72,5.46-1.87,0-2.78-1.18-2.78-7.7,0-6.09.51-8.3,2.72-8.3,1.96,0,2.59,1.36,2.59,4.5h4.34Z"/>
    <polygon class="cls-1" points="317.98 44.35 322.34 44.35 322.34 34.74 327.43 34.74 327.43 44.35 331.8 44.35 331.8 22.71 327.43 22.71 327.43 30.98 322.34 30.98 322.34 22.71 317.98 22.71 317.98 44.35"/>
    <polygon class="cls-1" points="332.74 22.7 332.74 44.35 345.14 44.35 345.14 40.77 337.11 40.77 337.11 34.95 344.38 34.95 344.38 31.37 337.11 31.37 337.11 26.28 344.84 26.28 344.84 22.7 332.74 22.7"/>
    <polygon class="cls-1" points="345.79 22.71 345.79 44.35 349.79 44.35 349.79 29.19 349.85 29.19 355.19 44.35 360.16 44.35 360.16 22.71 356.16 22.71 356.16 37.53 356.1 37.53 350.82 22.71 345.79 22.71"/>
    <rect class="cls-1" x="175.42" y="22.68" width="1" height="45.36"/>
    <g>
      <path class="cls-1" d="M118.18,66.27v.19c0,.26.03.49.09.7s.16.39.31.54.35.27.6.35c.25.08.58.12.97.12.29,0,.55-.03.8-.1.25-.07.46-.17.63-.32.18-.14.31-.32.41-.53s.15-.46.15-.74c0-.41-.09-.73-.27-.97s-.49-.43-.92-.58l-.83-.28c-.23-.07-.39-.16-.47-.27-.08-.11-.12-.23-.12-.36,0-.19.06-.34.19-.43s.28-.15.45-.15c.23,0,.38.07.47.19s.13.34.13.61h1.24v-.22c0-.49-.15-.86-.45-1.13s-.76-.4-1.39-.4c-.35,0-.65.04-.9.13s-.45.2-.61.35-.28.32-.35.51c-.07.2-.11.4-.11.62,0,.38.1.69.29.93.19.24.48.43.86.57l.97.35c.13.05.25.12.35.22s.15.22.15.39c0,.21-.06.37-.19.48-.13.11-.3.16-.51.16-.23,0-.41-.07-.53-.22-.12-.14-.18-.33-.18-.57v-.18h-1.24ZM113.33,68.03h1.38v-3.57c0-.59.24-.89.73-.89.21,0,.36.05.45.16.09.11.14.31.14.59v3.71h1.38v-3.99c0-.54-.12-.93-.35-1.17-.24-.24-.57-.36-1.01-.36-.61,0-1.04.23-1.31.69h-.02v-2.31h-1.38v7.14ZM109.79,64.02c.09-.3.29-.44.59-.44s.49.15.58.44.13.74.13,1.32-.04,1.03-.13,1.33-.28.44-.58.44-.5-.15-.59-.44-.13-.74-.13-1.33.04-1.03.13-1.32M108.28,69.79h1.38v-2.26h.02c.15.21.31.37.49.48.18.11.4.16.66.16.57,0,.98-.22,1.25-.66.27-.44.4-1.17.4-2.17s-.13-1.72-.4-2.16c-.27-.44-.68-.67-1.25-.67-.28,0-.51.06-.7.17s-.36.29-.51.55h-.02v-.57h-1.32v7.14ZM105.95,66.4c0,.15-.03.28-.08.38-.05.1-.12.19-.2.26-.08.07-.17.11-.27.15s-.2.05-.29.05c-.19,0-.32-.07-.4-.22s-.12-.32-.12-.53c0-.24.06-.43.18-.57s.32-.24.6-.3c.09-.02.18-.05.29-.09.11-.04.21-.1.3-.18v1.06ZM104.67,64.3v-.15c0-.21.05-.38.16-.51.11-.13.27-.19.48-.19.23,0,.4.06.49.17.1.12.14.28.14.49,0,.18-.04.32-.12.41s-.22.17-.43.22l-.78.21c-.24.07-.44.14-.61.23s-.31.19-.42.33-.19.29-.24.47c-.05.18-.08.4-.08.66,0,.18.02.36.07.55.05.18.12.35.22.49s.23.27.4.36c.17.09.37.14.61.14.33,0,.6-.05.81-.14s.39-.28.55-.56h.02c.02.09.04.19.06.28.02.1.06.19.1.27h1.32c-.07-.16-.11-.31-.13-.45-.02-.14-.03-.34-.03-.59v-2.83c0-.24-.02-.46-.07-.66s-.14-.38-.28-.52-.34-.26-.59-.34c-.26-.08-.59-.12-.99-.12-.26,0-.5.03-.73.09s-.43.15-.6.28-.3.3-.4.52-.15.47-.15.78v.13h1.24ZM100,68.03h1.38v-3.23c0-.18.03-.33.09-.45s.14-.22.24-.3.21-.13.33-.16.24-.05.36-.05c.07,0,.14,0,.21,0s.14,0,.21.01v-1.32s-.08-.01-.12-.01c-.04,0-.08,0-.12,0-.29,0-.53.08-.73.24s-.37.36-.51.62h-.02v-.72h-1.32v5.38ZM98.94,63.01c0-.73-.17-1.28-.52-1.67-.35-.39-.91-.59-1.7-.59-.46,0-.84.08-1.15.23-.31.15-.55.38-.74.68-.19.3-.32.68-.4,1.14-.08.45-.11.98-.11,1.58s.03,1.16.08,1.64c.05.47.16.86.32,1.18.16.32.37.56.65.73.28.16.64.24,1.07.24.34,0,.63-.06.88-.19.24-.13.45-.33.62-.61h.02v.66h1.06v-3.85h-2.33v1.06h.95v.73c0,.19-.03.36-.09.5s-.14.26-.23.35-.19.16-.29.21c-.1.05-.2.07-.28.07-.21,0-.38-.07-.51-.19s-.23-.32-.3-.56-.12-.54-.14-.88c-.03-.34-.04-.73-.04-1.16,0-.89.08-1.53.23-1.92.15-.39.4-.58.75-.58.15,0,.27.04.38.11.1.08.19.17.26.29.07.12.11.25.14.39s.05.28.05.4h1.38ZM86.95,68.03h1.38v-3.57c0-.59.24-.89.73-.89.21,0,.36.05.45.16s.14.31.14.59v3.71h1.38v-3.99c0-.54-.12-.93-.35-1.17s-.58-.36-1.02-.36c-.3,0-.57.06-.8.19s-.42.32-.57.58h-.02v-.63h-1.32v5.38ZM83.31,64.58c.01-.23.05-.43.1-.6s.12-.3.22-.39.23-.14.41-.14c.28,0,.47.15.58.44s.16.78.16,1.45-.05,1.16-.16,1.45-.3.44-.58.44c-.17,0-.31-.05-.41-.14s-.17-.22-.22-.39-.08-.37-.1-.6-.02-.49-.02-.76,0-.53.02-.76M82.01,66.58c.07.35.18.65.34.89s.38.42.65.53.62.17,1.03.16c.39,0,.72-.06.99-.18s.49-.3.65-.54.29-.53.36-.89.11-.76.11-1.22-.03-.88-.1-1.23-.18-.66-.34-.9-.38-.42-.65-.53-.62-.17-1.03-.17c-.39,0-.73.06-.99.19s-.49.3-.66.54-.29.53-.36.89-.11.76-.11,1.22.03.89.1,1.24"/>
      <path class="cls-1" d="M151.57,51.31v.6h-.02c-.13-.28-.3-.47-.51-.58s-.41-.16-.6-.16c-.37,0-.67.08-.89.25s-.39.38-.51.65-.19.56-.23.89-.05.65-.05.96c0,.98.14,1.68.41,2.1s.69.62,1.23.62c.22,0,.43-.06.63-.18s.37-.28.51-.48h.02v.71c0,.28-.06.51-.17.69s-.31.27-.59.27c-.09,0-.17-.01-.24-.04s-.15-.06-.21-.11c-.14-.1-.21-.24-.21-.41h-1.32c0,.46.16.82.47,1.07s.77.38,1.35.38c.81,0,1.38-.17,1.72-.51s.51-.88.51-1.6v-5.11h-1.32ZM150.16,53.26c.02-.25.05-.45.1-.6s.13-.26.22-.33.22-.1.37-.1c.27,0,.46.14.56.41s.15.74.15,1.39c0,.23-.01.43-.03.62s-.06.35-.12.49-.13.24-.23.31-.22.11-.36.11-.26-.04-.35-.11-.16-.18-.21-.31-.08-.28-.1-.44-.02-.34-.02-.53c0-.36,0-.66.02-.91M143.82,56.69h1.38v-3.57c0-.59.24-.89.73-.89.21,0,.36.06.45.17s.14.31.14.58v3.71h1.38v-3.99c0-.54-.12-.93-.35-1.17s-.57-.36-1.01-.36c-.3,0-.57.06-.8.18s-.42.32-.57.59h-.02v-.63h-1.32v5.38ZM141.44,56.69h1.38v-5.38h-1.38v5.38ZM141.44,50.65h1.38v-1.18h-1.38v1.18ZM136.36,56.69h1.38v-3.57c0-.59.24-.89.73-.89.21,0,.36.06.45.17.09.11.14.31.14.58v3.71h1.38v-3.99c0-.54-.12-.93-.35-1.17-.24-.24-.57-.36-1.01-.36-.3,0-.57.06-.8.18-.23.12-.42.32-.57.59h-.02v-.63h-1.32v5.38ZM132.92,56.69h1.38v-3.23c0-.18.03-.33.09-.45s.14-.22.24-.3.21-.13.33-.16.24-.05.36-.05c.07,0,.14,0,.21,0s.14,0,.21.01v-1.32s-.08-.01-.12-.01c-.04,0-.08,0-.12,0-.29,0-.53.08-.73.24s-.37.36-.51.62h-.02v-.72h-1.32v5.38ZM130.6,55.06c0,.15-.03.28-.08.38-.05.1-.12.19-.2.26-.08.07-.17.11-.27.15s-.2.05-.29.05c-.19,0-.32-.07-.4-.22s-.12-.32-.12-.53c0-.24.06-.43.18-.57s.32-.24.6-.3c.09-.02.18-.05.29-.09.11-.04.21-.1.3-.18v1.06ZM129.32,52.96v-.15c0-.21.05-.38.16-.51.11-.13.27-.19.48-.19.23,0,.4.06.49.17.1.12.14.28.14.49,0,.18-.04.32-.12.41s-.22.17-.43.22l-.78.21c-.24.07-.44.14-.61.23s-.31.19-.42.33-.19.29-.24.47c-.05.18-.08.4-.08.66,0,.18.02.36.07.55.05.18.12.35.22.49s.23.27.4.36c.17.09.37.14.61.14.33,0,.6-.05.81-.14s.39-.28.55-.56h.02c.02.09.04.19.06.28.02.1.06.19.1.27h1.32c-.07-.16-.11-.31-.13-.45-.02-.14-.03-.34-.03-.59v-2.83c0-.24-.02-.46-.07-.66s-.14-.38-.28-.52-.34-.26-.59-.34c-.26-.08-.59-.12-.99-.12-.26,0-.5.03-.73.09s-.43.15-.6.28-.3.3-.4.52-.15.47-.15.78v.13h1.24ZM124.6,53.39v-.21c0-.13.01-.25.03-.38.02-.13.06-.24.12-.35.05-.1.12-.19.21-.25.09-.06.2-.09.34-.09s.26.03.34.08c.09.06.16.14.21.25s.08.24.1.4c.02.16.03.34.04.55h-1.41ZM127.33,54.21v-.31c0-.41-.03-.79-.08-1.12-.05-.34-.15-.62-.3-.86-.15-.24-.35-.42-.6-.55-.26-.13-.59-.19-.98-.19-.47,0-.84.08-1.12.23s-.5.36-.64.62c-.15.26-.25.56-.3.89-.05.33-.07.68-.07,1.04,0,.33.01.67.04,1.01.03.34.11.65.24.93.13.28.34.5.62.67s.67.26,1.17.26c.66,0,1.14-.17,1.45-.5.31-.34.47-.82.5-1.44h-1.24c-.04.34-.11.59-.22.76-.11.17-.28.25-.51.25-.13,0-.23-.04-.32-.11-.09-.07-.16-.16-.21-.28-.05-.12-.09-.25-.12-.4-.02-.15-.03-.3-.03-.46v-.43h2.73ZM122.68,56.69v-1.18h-2.55v-5.96h-1.44v7.14h3.99ZM112.8,53.39v-.21c0-.13.01-.25.03-.38.02-.13.06-.24.11-.35.05-.1.12-.19.21-.25s.2-.09.34-.09.25.03.34.08.16.14.21.25.08.24.1.4.03.34.04.55h-1.41ZM115.53,54.21v-.31c0-.41-.03-.79-.08-1.12-.05-.34-.15-.62-.3-.86-.15-.24-.35-.42-.6-.55-.26-.13-.58-.19-.98-.19-.47,0-.84.08-1.12.23s-.49.36-.64.62-.25.56-.3.89-.07.68-.07,1.04c0,.33.01.67.04,1.01s.11.65.24.93c.13.28.34.5.62.67s.67.26,1.17.26c.66,0,1.14-.17,1.45-.5.31-.34.47-.82.5-1.44h-1.24c-.04.34-.11.59-.22.76-.11.17-.28.25-.51.25-.13,0-.23-.04-.32-.11-.09-.07-.16-.16-.21-.28-.05-.12-.09-.25-.11-.4-.02-.15-.03-.3-.03-.46v-.43h2.73ZM106.53,56.69h1.38v-3.57c0-.59.24-.89.73-.89.21,0,.36.06.45.17.09.11.14.31.14.58v3.71h1.38v-3.99c0-.54-.12-.93-.35-1.17-.24-.24-.57-.36-1.01-.36-.3,0-.57.06-.8.18-.23.12-.42.32-.57.59h-.02v-.63h-1.32v5.38ZM104.15,56.69h1.38v-5.38h-1.38v5.38ZM104.15,50.65h1.38v-1.18h-1.38v1.18ZM99.07,56.69h1.38v-3.57c0-.59.24-.89.73-.89.21,0,.36.06.45.17.09.11.14.31.14.58v3.71h1.38v-3.99c0-.54-.12-.93-.35-1.17-.24-.24-.57-.36-1.01-.36-.61,0-1.04.23-1.31.69h-.02v-2.31h-1.38v7.14ZM98.28,53.25c0-.64-.16-1.15-.49-1.52-.32-.37-.8-.56-1.44-.56-.32,0-.61.04-.88.13-.27.09-.5.24-.69.45-.19.22-.34.51-.45.87-.11.36-.16.82-.16,1.38s.04.99.13,1.35c.09.36.22.65.39.87s.38.37.64.47c.26.09.56.14.9.14.73,0,1.26-.19,1.57-.57.32-.38.48-.92.48-1.63h-1.32c0,.44-.05.76-.16.96-.11.2-.28.3-.51.3-.15,0-.28-.04-.38-.11-.1-.07-.17-.18-.22-.33-.05-.15-.09-.35-.11-.59s-.03-.52-.03-.85c0-.31.01-.58.03-.81s.06-.43.11-.58c.05-.15.13-.26.23-.34.1-.08.24-.11.41-.11.13,0,.23.03.32.1.08.06.15.15.19.25.04.1.07.22.09.35.02.13.02.26.02.39h1.32ZM92.05,55.06c0,.15-.03.28-.08.38-.05.1-.12.19-.2.26-.08.07-.18.11-.28.15s-.2.05-.29.05c-.19,0-.32-.07-.4-.22s-.12-.32-.12-.53c0-.24.06-.43.18-.57s.32-.24.6-.3c.09-.02.18-.05.29-.09.11-.04.21-.1.3-.18v1.06ZM90.77,52.96v-.15c0-.21.05-.38.16-.51.11-.13.27-.19.48-.19.23,0,.4.06.49.17.1.12.15.28.15.49,0,.18-.04.32-.12.41s-.22.17-.43.22l-.78.21c-.24.07-.44.14-.61.23s-.31.19-.42.33-.19.29-.24.47c-.05.18-.08.4-.08.66,0,.18.02.36.07.55.05.18.12.35.22.49s.23.27.4.36c.17.09.37.14.61.14.33,0,.61-.05.82-.14s.39-.28.55-.56h.02c.02.09.04.19.06.28.02.1.06.19.11.27h1.32c-.07-.16-.11-.31-.14-.45-.02-.14-.03-.34-.03-.59v-2.83c0-.24-.02-.46-.07-.66s-.14-.38-.28-.52-.34-.26-.6-.34c-.26-.08-.59-.12-.99-.12-.26,0-.51.03-.73.09s-.43.15-.6.28-.31.3-.4.52-.15.47-.15.78v.13h1.24ZM82.16,56.69h1.32v-5.7h.02l1.27,5.7h1.12l1.27-5.7h.02v5.7h1.32v-7.14h-2.13l-1.03,5.04h-.02l-1.02-5.04h-2.14v7.14Z"/>
      <path class="cls-1" d="M158.92,45.35h1.38v-3.23c0-.18.03-.33.09-.45s.14-.22.24-.3.21-.13.33-.16.24-.05.36-.05c.07,0,.14,0,.21,0s.14,0,.21.01v-1.32s-.08-.01-.12-.02c-.04,0-.08,0-.12,0-.29,0-.53.08-.73.24s-.37.36-.51.62h-.02v-.72h-1.32v5.38ZM155.28,41.9c.01-.23.04-.43.09-.6s.12-.3.22-.39c.1-.09.23-.14.4-.14.28,0,.47.15.58.44.11.29.16.78.16,1.45s-.05,1.16-.16,1.45c-.11.29-.3.44-.58.44-.17,0-.31-.05-.4-.14-.1-.09-.17-.22-.22-.39s-.08-.37-.09-.6c-.01-.23-.02-.49-.02-.76s0-.53.02-.76M153.98,43.9c.07.35.18.65.34.89s.38.42.65.54c.27.12.62.17,1.03.16.39,0,.72-.06.99-.19s.49-.3.65-.54c.17-.24.29-.53.36-.89.07-.35.11-.76.11-1.22s-.03-.88-.1-1.24c-.07-.36-.18-.65-.34-.89s-.38-.42-.65-.54c-.27-.12-.62-.17-1.03-.16-.39,0-.72.06-.99.19s-.49.3-.65.54c-.17.24-.29.53-.36.89-.07.35-.11.76-.11,1.22s.03.89.1,1.24M151.3,45.35h1.38v-4.44h.8v-.94h-.8v-.47c0-.15.04-.26.12-.33s.22-.1.41-.1h.13c.06,0,.11,0,.14,0v-.98c-.25-.02-.5-.03-.74-.03-.22,0-.42.02-.6.06s-.33.11-.45.22c-.12.1-.22.23-.28.4-.07.17-.1.37-.1.61v.61h-.7v.94h.7v4.44ZM145.27,45.35h1.38v-3.23c0-.18.03-.33.09-.45s.14-.22.24-.3.21-.13.33-.16.24-.05.36-.05c.07,0,.14,0,.21,0s.14,0,.21.01v-1.32s-.08-.01-.12-.02-.08,0-.12,0c-.29,0-.53.08-.73.24s-.37.36-.51.62h-.02v-.72h-1.32v5.38ZM141.63,41.9c.01-.23.04-.43.09-.6s.12-.3.22-.39.23-.14.4-.14c.28,0,.47.15.58.44s.16.78.16,1.45-.05,1.16-.16,1.45-.3.44-.58.44c-.17,0-.31-.05-.4-.14s-.17-.22-.22-.39-.08-.37-.09-.6-.02-.49-.02-.76,0-.53.02-.76M140.33,43.9c.07.35.18.65.34.89s.38.42.65.54.62.17,1.03.16c.39,0,.72-.06.99-.19s.49-.3.65-.54.29-.53.36-.89.11-.76.11-1.22-.03-.88-.1-1.24-.18-.65-.34-.89-.38-.42-.65-.54-.62-.17-1.03-.16c-.39,0-.72.06-.99.19s-.49.3-.65.54-.29.53-.36.89-.11.76-.11,1.22.03.89.1,1.24M135.66,43.59v.19c0,.26.03.49.09.7s.16.39.31.54.35.26.6.34c.25.08.58.12.97.12.29,0,.55-.04.8-.11.25-.07.46-.18.63-.31.18-.14.31-.32.41-.53s.15-.46.15-.74c0-.41-.09-.73-.27-.97s-.49-.43-.92-.57l-.83-.28c-.23-.07-.39-.16-.47-.27-.08-.11-.12-.23-.12-.36,0-.19.06-.34.19-.44s.28-.14.45-.14c.23,0,.38.06.47.19s.13.34.13.61h1.24v-.22c0-.49-.15-.86-.45-1.13s-.76-.4-1.39-.4c-.35,0-.65.04-.9.13s-.45.2-.61.35-.28.32-.35.52c-.07.2-.11.4-.11.62,0,.38.1.69.29.93.19.24.48.43.86.57l.97.35c.13.05.25.12.35.22s.15.22.15.4c0,.21-.06.37-.19.48-.13.11-.3.16-.51.16-.23,0-.41-.07-.53-.22-.12-.14-.18-.33-.18-.56v-.18h-1.24ZM131.1,43.59v.19c0,.26.03.49.09.7s.16.39.31.54.35.26.6.34c.25.08.58.12.97.12.29,0,.55-.04.8-.11.25-.07.46-.18.63-.31.18-.14.31-.32.41-.53s.15-.46.15-.74c0-.41-.09-.73-.27-.97s-.49-.43-.92-.57l-.83-.28c-.23-.07-.39-.16-.47-.27-.08-.11-.12-.23-.12-.36,0-.19.06-.34.19-.44s.28-.14.45-.14c.23,0,.38.06.47.19s.13.34.13.61h1.24v-.22c0-.49-.15-.86-.45-1.13s-.76-.4-1.39-.4c-.35,0-.65.04-.9.13s-.45.2-.61.35-.28.32-.35.52c-.07.2-.11.4-.11.62,0,.38.1.69.29.93.19.24.48.43.86.57l.97.35c.13.05.25.12.35.22s.15.22.15.4c0,.21-.06.37-.19.48-.13.11-.3.16-.51.16-.23,0-.41-.07-.53-.22-.12-.14-.18-.33-.18-.56v-.18h-1.24ZM127.79,42.05v-.21c0-.13.01-.25.03-.38.02-.13.06-.24.11-.34.05-.1.12-.19.21-.25s.2-.1.34-.1.25.03.34.09.16.14.21.25.08.24.1.4.03.34.04.55h-1.41ZM130.52,42.87v-.31c0-.41-.03-.79-.08-1.12-.05-.34-.15-.62-.3-.86-.15-.24-.35-.42-.6-.55-.26-.13-.58-.2-.98-.2-.47,0-.84.08-1.12.23s-.49.36-.64.62-.25.56-.3.89-.07.68-.07,1.04c0,.33.01.67.04,1.01s.11.65.24.93c.13.28.34.5.62.68s.67.26,1.17.26c.66,0,1.14-.17,1.45-.51.31-.34.47-.82.5-1.45h-1.24c-.04.34-.11.59-.22.76-.11.17-.28.25-.51.25-.13,0-.23-.03-.32-.1-.09-.07-.16-.16-.21-.28-.05-.12-.09-.25-.11-.4-.02-.15-.03-.31-.03-.47v-.43h2.73ZM123.84,45.35h1.38v-4.44h.8v-.94h-.8v-.47c0-.15.04-.26.12-.33s.22-.1.41-.1h.13c.06,0,.11,0,.14,0v-.98c-.25-.02-.5-.03-.74-.03-.22,0-.42.02-.6.06s-.33.11-.45.22c-.12.1-.22.23-.28.4-.07.17-.1.37-.1.61v.61h-.7v.94h.7v4.44ZM119.88,41.9c.01-.23.04-.43.09-.6s.12-.3.22-.39c.1-.09.23-.14.4-.14.28,0,.47.15.58.44.11.29.16.78.16,1.45s-.05,1.16-.16,1.45c-.11.29-.3.44-.58.44-.17,0-.31-.05-.4-.14-.1-.09-.17-.22-.22-.39s-.08-.37-.09-.6c-.01-.23-.02-.49-.02-.76s0-.53.02-.76M118.58,43.9c.07.35.18.65.34.89s.38.42.65.54c.27.12.62.17,1.03.16.39,0,.72-.06.99-.19s.49-.3.65-.54c.17-.24.29-.53.36-.89.07-.35.11-.76.11-1.22s-.03-.88-.1-1.24c-.07-.36-.18-.65-.34-.89s-.38-.42-.65-.54c-.27-.12-.62-.17-1.03-.16-.39,0-.72.06-.99.19s-.49.3-.65.54c-.17.24-.29.53-.36.89-.07.35-.11.76-.11,1.22s.03.89.1,1.24M115.19,45.35h1.38v-3.23c0-.18.03-.33.09-.45s.14-.22.24-.3.21-.13.33-.16.24-.05.36-.05c.07,0,.14,0,.21,0s.14,0,.21.01v-1.32s-.08-.01-.12-.02c-.04,0-.08,0-.12,0-.29,0-.53.08-.73.24s-.37.36-.51.62h-.02v-.72h-1.32v5.38ZM109.98,45.35h1.44v-2.85h.77c.34,0,.65-.04.93-.13s.52-.22.71-.39c.2-.17.35-.4.46-.66s.16-.59.16-.97c0-.27-.03-.53-.1-.78-.07-.26-.18-.49-.33-.69-.15-.2-.35-.36-.6-.48s-.56-.19-.92-.19h-2.52v7.14ZM111.42,39.27h.6c.36,0,.62.09.77.28.15.19.23.46.23.82s-.09.64-.26.81c-.18.17-.41.26-.69.26h-.64v-2.17ZM104.21,45.35h1.38v-3.23c0-.18.03-.33.09-.45s.14-.22.24-.3.21-.13.33-.16.24-.05.36-.05c.07,0,.14,0,.21,0s.14,0,.21.01v-1.32s-.08-.01-.12-.02c-.04,0-.08,0-.12,0-.29,0-.53.08-.73.24s-.37.36-.51.62h-.02v-.72h-1.32v5.38ZM100.57,41.9c.01-.23.04-.43.09-.6s.12-.3.22-.39c.1-.09.23-.14.4-.14.28,0,.47.15.58.44.11.29.16.78.16,1.45s-.05,1.16-.16,1.45c-.11.29-.3.44-.58.44-.17,0-.31-.05-.4-.14-.1-.09-.17-.22-.22-.39s-.08-.37-.09-.6c-.01-.23-.02-.49-.02-.76s0-.53.02-.76M99.27,43.9c.07.35.18.65.34.89s.38.42.65.54c.27.12.62.17,1.03.16.39,0,.72-.06.99-.19s.49-.3.65-.54c.17-.24.29-.53.36-.89.07-.35.11-.76.11-1.22s-.03-.88-.1-1.24c-.07-.36-.18-.65-.34-.89s-.38-.42-.65-.54c-.27-.12-.62-.17-1.03-.16-.39,0-.72.06-.99.19s-.49.3-.65.54c-.17.24-.29.53-.36.89-.07.35-.11.76-.11,1.22s.03.89.1,1.24M96.94,45.35h1.38v-5.38h-1.38v5.38ZM96.94,39.31h1.38v-1.18h-1.38v1.18ZM91.86,45.35h1.38v-3.57c0-.59.24-.89.73-.89.21,0,.36.06.45.16s.14.31.14.59v3.71h1.38v-3.99c0-.54-.12-.93-.35-1.17s-.58-.36-1.02-.36c-.3,0-.57.06-.8.19s-.42.32-.57.59h-.02v-.63h-1.32v5.38ZM89.57,45.35h1.32v-5.38h-1.38v3.57c0,.59-.24.89-.73.89-.21,0-.36-.06-.45-.16s-.14-.31-.14-.59v-3.71h-1.38v3.99c0,.54.12.93.35,1.17s.58.36,1.02.36c.3,0,.57-.06.8-.19s.42-.32.57-.59h.02v.63ZM84.38,38.21v5.1c0,.38-.04.66-.12.85s-.26.27-.51.27-.43-.09-.52-.27-.12-.47-.12-.85v-.22h-1.32v.31c0,.28.03.55.08.8s.15.47.3.66.34.34.58.45.55.17.93.17c.73,0,1.27-.17,1.62-.5s.53-.88.53-1.64v-5.14h-1.44Z"/>
      <path class="cls-1" d="M28.77,66.9h-13.3v-19.15h-1.31v20.28h14.6v-1.14ZM49.69,59.51c-.1.65-.27,1.28-.49,1.9-.26.72-.61,1.39-1.02,2.01-.18-.06-.38-.1-.58-.1-.09,0-.17.04-.26.05h0c-.49-.94-.89-1.93-1.12-2.99.9-.59,1.88-1.02,2.9-1.33.16.19.35.35.57.46M49.69,56.27c-.22.11-.41.27-.57.46-1.02-.32-2-.75-2.9-1.33.23-1.06.63-2.06,1.12-2.99.09.01.17.05.26.05.2,0,.4-.03.58-.1.42.62.76,1.29,1.02,2.01.23.62.39,1.26.49,1.9M45.9,50.06c-.07.19-.1.39-.1.6,0,.01,0,.02,0,.03-.97.52-2.01.94-3.12,1.18-.53-.81-.91-1.69-1.22-2.59.25-.19.45-.44.57-.73.87.12,1.67.35,2.4.68.53.24,1.02.52,1.48.83M39.01,49.04h0c-.32.99-.74,1.95-1.31,2.83-.99-.21-1.92-.58-2.81-1.03h0c0-.06.04-.12.04-.18,0-.21-.04-.41-.1-.6.45-.31.94-.59,1.48-.83.73-.33,1.53-.56,2.4-.68.07.18.18.34.31.49M32.55,52.36c.16.06.34.08.52.09.48.93.87,1.9,1.1,2.95-.82.53-1.72.93-2.64,1.24h0c-.14-.15-.3-.28-.49-.37.1-.65.27-1.28.49-1.9.26-.72.6-1.39,1.02-2.01M31.03,59.51c.19-.09.35-.22.49-.37.92.31,1.82.71,2.64,1.24-.23,1.05-.62,2.02-1.1,2.95-.18,0-.36.03-.52.09-.42-.62-.76-1.29-1.02-2.01-.23-.62-.39-1.26-.49-1.9M33.13,63.32s-.04.01-.06.01M34.83,65.73c.07-.19.1-.39.1-.6,0-.07-.03-.12-.04-.18.89-.44,1.81-.81,2.81-1.03.57.88.99,1.84,1.31,2.83h0c-.13.15-.24.31-.31.49-.87-.12-1.67-.35-2.4-.68-.53-.24-1.02-.52-1.48-.83M45.8,65.13c0,.21.04.41.1.6-.45.31-.94.59-1.48.83-.73.33-1.53.56-2.4.68-.12-.29-.32-.54-.57-.73.31-.91.7-1.78,1.22-2.59,1.11.24,2.15.66,3.12,1.18M46,56.8c.75.44,1.54.81,2.36,1.09-.82.28-1.61.65-2.36,1.09-.03-.36-.05-.72-.05-1.09s.02-.73.05-1.09M43.53,53.01c.86-.23,1.68-.53,2.46-.91-.38.78-.69,1.6-.91,2.46-.28-.23-.55-.48-.81-.74-.26-.26-.5-.53-.73-.81M44.26,61.96c.26-.26.53-.5.81-.74.22.86.53,1.68.91,2.46-.78-.38-1.6-.69-2.46-.92.23-.28.48-.55.73-.81M39.1,63.7c.36-.03.72-.05,1.09-.05s.73.02,1.09.05c-.44.75-.81,1.54-1.09,2.36-.28-.82-.65-1.61-1.09-2.36M36.86,53.01c-.23.28-.48.55-.74.81s-.53.5-.81.74c-.22-.86-.53-1.68-.91-2.46.78.38,1.6.69,2.46.91M32.05,57.91h0s0,0,0-.01c0,0,0,0,0-.01.81-.28,1.59-.64,2.33-1.08.03.36.05.72.05,1.09s-.02.73-.05,1.09c-.74-.44-1.52-.79-2.33-1.08M34.4,63.69c.38-.78.69-1.6.91-2.46.28.23.55.48.81.74.26.26.5.53.74.81-.86.23-1.68.53-2.46.92M42.09,53.3c.38.51.8.99,1.25,1.44.46.46.94.87,1.44,1.25-.09.62-.14,1.25-.14,1.9s.05,1.28.14,1.9c-.51.38-.99.8-1.44,1.25-.45.45-.87.94-1.25,1.44-.62-.09-1.25-.14-1.9-.14s-1.28.05-1.9.14c-.38-.51-.8-.99-1.25-1.44-.46-.45-.94-.87-1.44-1.25.09-.62.14-1.25.14-1.9s-.05-1.28-.14-1.9c.51-.38.99-.79,1.44-1.25s.87-.94,1.25-1.44c.62.09,1.25.14,1.9.14s1.28-.05,1.9-.14M41.28,52.08c-.36.03-.72.05-1.09.05s-.73-.02-1.09-.05c.44-.75.81-1.54,1.09-2.37.28.82.65,1.61,1.09,2.37M52.28,57.89c0-.82-.55-1.51-1.3-1.73-.02-.14-.05-.28-.07-.43-.15-.78-.4-1.56-.74-2.34-.27-.62-.61-1.23-1.01-1.82.16-.27.25-.58.25-.91,0-1-.81-1.8-1.8-1.8-.33,0-.63.09-.9.24-.77-.53-1.67-.96-2.69-1.29-.59-.19-1.23-.32-1.91-.41-.2-.77-.9-1.34-1.74-1.34s-1.53.57-1.74,1.34c-.69.08-1.34.22-1.93.41-1.01.33-1.9.76-2.67,1.29-.26-.15-.57-.24-.9-.24-.99,0-1.8.81-1.8,1.8,0,.33.09.64.25.91-.4.59-.74,1.2-1.01,1.82-.34.79-.59,1.57-.74,2.34-.03.15-.05.29-.07.43-.75.22-1.3.91-1.3,1.73s.55,1.51,1.3,1.73c.02.14.05.28.07.43.15.78.4,1.56.74,2.34.27.62.61,1.23,1.01,1.82-.16.27-.25.58-.25.91,0,.99.81,1.8,1.8,1.8.33,0,.63-.09.9-.24.77.53,1.67.96,2.69,1.29.59.19,1.23.32,1.91.41.2.77.91,1.34,1.74,1.34s1.53-.57,1.74-1.34c.68-.08,1.32-.22,1.91-.41,1.02-.33,1.92-.76,2.69-1.29.26.15.57.24.89.24.99,0,1.8-.81,1.8-1.8,0-.33-.09-.64-.25-.91.4-.59.74-1.2,1.01-1.82.34-.79.59-1.57.74-2.34.03-.15.05-.29.07-.43.75-.22,1.3-.91,1.3-1.73M65.23,59.06h8.15c-.08,1.29-.34,2.44-.78,3.47-.45,1.02-1.04,1.89-1.79,2.61s-1.65,1.27-2.7,1.65-2.21.57-3.48.57c-1.55,0-2.92-.26-4.1-.77-1.18-.51-2.17-1.2-2.97-2.06-.8-.86-1.4-1.86-1.8-3.01s-.61-2.35-.61-3.62.22-2.48.67-3.62c.45-1.15,1.08-2.15,1.9-3.03.82-.87,1.82-1.56,2.98-2.06s2.48-.75,3.93-.75c1.02,0,1.99.12,2.9.35s1.73.6,2.47,1.08c.74.48,1.36,1.08,1.88,1.79s.87,1.53,1.08,2.46h1.31c-.25-1.1-.65-2.07-1.22-2.91-.57-.84-1.27-1.55-2.1-2.13-.83-.58-1.78-1.02-2.84-1.32s-2.22-.45-3.47-.45c-1.86,0-3.47.32-4.83.97-1.36.64-2.48,1.47-3.37,2.49s-1.53,2.15-1.96,3.41c-.43,1.26-.64,2.5-.64,3.74,0,1.69.27,3.18.82,4.49.55,1.31,1.31,2.41,2.27,3.32s2.11,1.6,3.42,2.07,2.74.71,4.28.71c.97,0,1.9-.11,2.81-.34s1.75-.57,2.51-1.02c.77-.45,1.45-1.02,2.06-1.7s1.1-1.48,1.48-2.39h.06v5h1.14v-10.11h-9.46v1.14Z"/>
    </g>
  </g>
</svg>